<mxfile host="app.diagrams.net" agent="Mozilla/5.0 (Windows NT 10.0; Win64; x64) AppleWebKit/537.36 (KHTML, like Gecko) Chrome/131.0.0.0 Safari/537.36" version="26.0.8">
  <diagram name="Page-1" id="zNV9EFHkw3PB3SmRQon0">
    <mxGraphModel dx="1120" dy="1568" grid="1" gridSize="10" guides="1" tooltips="1" connect="1" arrows="1" fold="1" page="1" pageScale="1" pageWidth="850" pageHeight="1100" math="0" shadow="0">
      <root>
        <mxCell id="0" />
        <mxCell id="1" parent="0" />
        <mxCell id="tFLva0FAG4GvPMsZimVx-1" value="" style="swimlane;startSize=0;" parent="1" vertex="1">
          <mxGeometry x="160" y="-430" width="570" height="430" as="geometry" />
        </mxCell>
        <object label="LOGIN" id="tFLva0FAG4GvPMsZimVx-10">
          <mxCell style="ellipse;whiteSpace=wrap;html=1;" parent="tFLva0FAG4GvPMsZimVx-1" vertex="1">
            <mxGeometry x="90" y="80" width="100" height="20" as="geometry" />
          </mxCell>
        </object>
        <mxCell id="tFLva0FAG4GvPMsZimVx-11" value="BROWSE" style="ellipse;whiteSpace=wrap;html=1;" parent="tFLva0FAG4GvPMsZimVx-1" vertex="1">
          <mxGeometry x="70" y="20" width="70" height="20" as="geometry" />
        </mxCell>
        <mxCell id="tFLva0FAG4GvPMsZimVx-12" value="PLACE ORDER" style="ellipse;whiteSpace=wrap;html=1;" parent="tFLva0FAG4GvPMsZimVx-1" vertex="1">
          <mxGeometry x="100" y="140" width="100" height="30" as="geometry" />
        </mxCell>
        <mxCell id="tFLva0FAG4GvPMsZimVx-13" value="SIGN UP" style="ellipse;whiteSpace=wrap;html=1;" parent="tFLva0FAG4GvPMsZimVx-1" vertex="1">
          <mxGeometry x="90" y="270" width="100" height="20" as="geometry" />
        </mxCell>
        <mxCell id="tFLva0FAG4GvPMsZimVx-14" value="SUBMIT ORDER" style="ellipse;whiteSpace=wrap;html=1;" parent="tFLva0FAG4GvPMsZimVx-1" vertex="1">
          <mxGeometry x="90" y="200" width="110" height="30" as="geometry" />
        </mxCell>
        <mxCell id="tFLva0FAG4GvPMsZimVx-23" value="" style="endArrow=none;html=1;rounded=0;entryX=0.058;entryY=0.775;entryDx=0;entryDy=0;entryPerimeter=0;exitX=0.025;exitY=0.725;exitDx=0;exitDy=0;exitPerimeter=0;" parent="tFLva0FAG4GvPMsZimVx-1" source="tFLva0FAG4GvPMsZimVx-10" target="tFLva0FAG4GvPMsZimVx-11" edge="1">
          <mxGeometry width="50" height="50" relative="1" as="geometry">
            <mxPoint x="260" y="230" as="sourcePoint" />
            <mxPoint x="310" y="180" as="targetPoint" />
            <Array as="points">
              <mxPoint x="-10" y="130" />
            </Array>
          </mxGeometry>
        </mxCell>
        <mxCell id="tFLva0FAG4GvPMsZimVx-24" value="" style="endArrow=none;html=1;rounded=0;entryX=0.375;entryY=0.075;entryDx=0;entryDy=0;entryPerimeter=0;" parent="tFLva0FAG4GvPMsZimVx-1" source="tFLva0FAG4GvPMsZimVx-1" target="tFLva0FAG4GvPMsZimVx-12" edge="1">
          <mxGeometry width="50" height="50" relative="1" as="geometry">
            <mxPoint x="260" y="230" as="sourcePoint" />
            <mxPoint x="310" y="180" as="targetPoint" />
            <Array as="points">
              <mxPoint x="-10" y="130" />
            </Array>
          </mxGeometry>
        </mxCell>
        <mxCell id="tFLva0FAG4GvPMsZimVx-26" value="" style="endArrow=none;html=1;rounded=0;entryX=0.083;entryY=0.775;entryDx=0;entryDy=0;entryPerimeter=0;exitX=0.025;exitY=0.3;exitDx=0;exitDy=0;exitPerimeter=0;" parent="tFLva0FAG4GvPMsZimVx-1" source="tFLva0FAG4GvPMsZimVx-13" target="tFLva0FAG4GvPMsZimVx-11" edge="1">
          <mxGeometry width="50" height="50" relative="1" as="geometry">
            <mxPoint x="80" y="240" as="sourcePoint" />
            <mxPoint x="310" y="170" as="targetPoint" />
            <Array as="points">
              <mxPoint x="-30" y="250" />
            </Array>
          </mxGeometry>
        </mxCell>
        <mxCell id="tFLva0FAG4GvPMsZimVx-31" value="" style="endArrow=none;html=1;rounded=0;exitX=0.942;exitY=0.275;exitDx=0;exitDy=0;exitPerimeter=0;entryX=1;entryY=0.5;entryDx=0;entryDy=0;" parent="tFLva0FAG4GvPMsZimVx-1" source="tFLva0FAG4GvPMsZimVx-13" target="tFLva0FAG4GvPMsZimVx-10" edge="1">
          <mxGeometry width="50" height="50" relative="1" as="geometry">
            <mxPoint x="260" y="220" as="sourcePoint" />
            <mxPoint x="300" y="170" as="targetPoint" />
            <Array as="points">
              <mxPoint x="610" y="30" />
            </Array>
          </mxGeometry>
        </mxCell>
        <mxCell id="HhsFKwcPgfAqlrPu1In0-19" style="edgeStyle=orthogonalEdgeStyle;rounded=0;orthogonalLoop=1;jettySize=auto;html=1;exitX=0.5;exitY=1;exitDx=0;exitDy=0;" edge="1" parent="tFLva0FAG4GvPMsZimVx-1" source="tFLva0FAG4GvPMsZimVx-45">
          <mxGeometry relative="1" as="geometry">
            <mxPoint x="240" y="120" as="targetPoint" />
          </mxGeometry>
        </mxCell>
        <mxCell id="tFLva0FAG4GvPMsZimVx-45" value="CHOOSE FOOD" style="ellipse;whiteSpace=wrap;html=1;" parent="tFLva0FAG4GvPMsZimVx-1" vertex="1">
          <mxGeometry x="160" y="90" width="120" height="20" as="geometry" />
        </mxCell>
        <mxCell id="tFLva0FAG4GvPMsZimVx-47" value="GET ASSIGN AN ORDER" style="ellipse;whiteSpace=wrap;html=1;" parent="tFLva0FAG4GvPMsZimVx-1" vertex="1">
          <mxGeometry x="340" y="190" width="150" height="20" as="geometry" />
        </mxCell>
        <mxCell id="tFLva0FAG4GvPMsZimVx-48" value="DELIVER THE FOOD" style="ellipse;whiteSpace=wrap;html=1;" parent="tFLva0FAG4GvPMsZimVx-1" vertex="1">
          <mxGeometry x="350" y="230" width="120" height="20" as="geometry" />
        </mxCell>
        <mxCell id="tFLva0FAG4GvPMsZimVx-49" value="" style="endArrow=none;html=1;rounded=0;entryX=1;entryY=0.5;entryDx=0;entryDy=0;exitX=1;exitY=0.5;exitDx=0;exitDy=0;" parent="tFLva0FAG4GvPMsZimVx-1" source="tFLva0FAG4GvPMsZimVx-47" target="tFLva0FAG4GvPMsZimVx-48" edge="1">
          <mxGeometry width="50" height="50" relative="1" as="geometry">
            <mxPoint x="370" y="190" as="sourcePoint" />
            <mxPoint x="420" y="140" as="targetPoint" />
            <Array as="points">
              <mxPoint x="630" y="210" />
            </Array>
          </mxGeometry>
        </mxCell>
        <mxCell id="tFLva0FAG4GvPMsZimVx-51" value="" style="endArrow=none;html=1;rounded=0;entryX=0.005;entryY=0.374;entryDx=0;entryDy=0;entryPerimeter=0;" parent="tFLva0FAG4GvPMsZimVx-1" source="tFLva0FAG4GvPMsZimVx-48" target="tFLva0FAG4GvPMsZimVx-1" edge="1">
          <mxGeometry width="50" height="50" relative="1" as="geometry">
            <mxPoint x="370" y="190" as="sourcePoint" />
            <mxPoint x="420" y="140" as="targetPoint" />
          </mxGeometry>
        </mxCell>
        <mxCell id="tFLva0FAG4GvPMsZimVx-53" value="" style="endArrow=none;dashed=1;html=1;rounded=0;entryX=0.5;entryY=1;entryDx=0;entryDy=0;" parent="tFLva0FAG4GvPMsZimVx-1" source="tFLva0FAG4GvPMsZimVx-48" target="tFLva0FAG4GvPMsZimVx-47" edge="1">
          <mxGeometry width="50" height="50" relative="1" as="geometry">
            <mxPoint x="370" y="190" as="sourcePoint" />
            <mxPoint x="420" y="140" as="targetPoint" />
          </mxGeometry>
        </mxCell>
        <mxCell id="HhsFKwcPgfAqlrPu1In0-6" value="" style="endArrow=none;dashed=1;html=1;rounded=0;entryX=0.4;entryY=1.15;entryDx=0;entryDy=0;entryPerimeter=0;" edge="1" parent="tFLva0FAG4GvPMsZimVx-1" target="tFLva0FAG4GvPMsZimVx-11">
          <mxGeometry width="50" height="50" relative="1" as="geometry">
            <mxPoint x="150" y="80" as="sourcePoint" />
            <mxPoint x="300" y="160" as="targetPoint" />
          </mxGeometry>
        </mxCell>
        <mxCell id="HhsFKwcPgfAqlrPu1In0-9" value="" style="endArrow=none;dashed=1;html=1;rounded=0;exitX=0.5;exitY=0;exitDx=0;exitDy=0;" edge="1" parent="tFLva0FAG4GvPMsZimVx-1" source="tFLva0FAG4GvPMsZimVx-14" target="tFLva0FAG4GvPMsZimVx-12">
          <mxGeometry width="50" height="50" relative="1" as="geometry">
            <mxPoint x="250" y="210" as="sourcePoint" />
            <mxPoint x="300" y="160" as="targetPoint" />
          </mxGeometry>
        </mxCell>
        <mxCell id="HhsFKwcPgfAqlrPu1In0-12" value="" style="endArrow=none;dashed=1;html=1;rounded=0;exitX=0.682;exitY=1.1;exitDx=0;exitDy=0;exitPerimeter=0;entryX=0.69;entryY=-0.05;entryDx=0;entryDy=0;entryPerimeter=0;" edge="1" parent="tFLva0FAG4GvPMsZimVx-1" source="tFLva0FAG4GvPMsZimVx-14" target="tFLva0FAG4GvPMsZimVx-13">
          <mxGeometry width="50" height="50" relative="1" as="geometry">
            <mxPoint x="250" y="210" as="sourcePoint" />
            <mxPoint x="300" y="160" as="targetPoint" />
          </mxGeometry>
        </mxCell>
        <mxCell id="HhsFKwcPgfAqlrPu1In0-22" value="" style="endArrow=none;dashed=1;html=1;rounded=0;exitX=0.95;exitY=0.3;exitDx=0;exitDy=0;entryX=0.5;entryY=1;entryDx=0;entryDy=0;exitPerimeter=0;" edge="1" parent="tFLva0FAG4GvPMsZimVx-1" source="tFLva0FAG4GvPMsZimVx-12" target="tFLva0FAG4GvPMsZimVx-45">
          <mxGeometry width="50" height="50" relative="1" as="geometry">
            <mxPoint x="260" y="200" as="sourcePoint" />
            <mxPoint x="310" y="150" as="targetPoint" />
          </mxGeometry>
        </mxCell>
        <mxCell id="HhsFKwcPgfAqlrPu1In0-23" value="" style="ellipse;whiteSpace=wrap;html=1;" vertex="1" parent="tFLva0FAG4GvPMsZimVx-1">
          <mxGeometry x="225" y="120" width="120" height="30" as="geometry" />
        </mxCell>
        <mxCell id="tFLva0FAG4GvPMsZimVx-2" value="KITCHEN STAFF" style="shape=umlActor;verticalLabelPosition=bottom;verticalAlign=top;html=1;outlineConnect=0;" parent="1" vertex="1">
          <mxGeometry x="760" y="-350" width="30" height="30" as="geometry" />
        </mxCell>
        <mxCell id="tFLva0FAG4GvPMsZimVx-3" value="ADMIN" style="shape=umlActor;verticalLabelPosition=bottom;verticalAlign=top;html=1;outlineConnect=0;" parent="1" vertex="1">
          <mxGeometry x="770" y="-450" width="20" height="30" as="geometry" />
        </mxCell>
        <mxCell id="tFLva0FAG4GvPMsZimVx-4" value="CUSTOMER" style="shape=umlActor;verticalLabelPosition=bottom;verticalAlign=top;html=1;outlineConnect=0;" parent="1" vertex="1">
          <mxGeometry x="110" y="-330" width="20" height="30" as="geometry" />
        </mxCell>
        <mxCell id="tFLva0FAG4GvPMsZimVx-16" value="USER" style="shape=umlActor;verticalLabelPosition=bottom;verticalAlign=top;html=1;outlineConnect=0;" parent="1" vertex="1">
          <mxGeometry x="100" y="-210" width="20" height="30" as="geometry" />
        </mxCell>
        <mxCell id="tFLva0FAG4GvPMsZimVx-20" value="DELIVERY PERSON" style="shape=umlActor;verticalLabelPosition=bottom;verticalAlign=top;html=1;outlineConnect=0;" parent="1" vertex="1">
          <mxGeometry x="770" y="-260" width="20" height="40" as="geometry" />
        </mxCell>
        <mxCell id="tFLva0FAG4GvPMsZimVx-29" value="" style="endArrow=none;html=1;rounded=0;" parent="1" source="tFLva0FAG4GvPMsZimVx-14" edge="1">
          <mxGeometry width="50" height="50" relative="1" as="geometry">
            <mxPoint x="400" y="-220" as="sourcePoint" />
            <mxPoint x="140" y="-310" as="targetPoint" />
          </mxGeometry>
        </mxCell>
        <mxCell id="tFLva0FAG4GvPMsZimVx-41" value="PAYMENT SYSTEM" style="shape=umlActor;verticalLabelPosition=bottom;verticalAlign=top;html=1;outlineConnect=0;" parent="1" vertex="1">
          <mxGeometry x="765" y="-180" width="25" height="30" as="geometry" />
        </mxCell>
        <mxCell id="tFLva0FAG4GvPMsZimVx-50" value="" style="endArrow=none;html=1;rounded=0;entryX=0;entryY=1;entryDx=0;entryDy=0;entryPerimeter=0;" parent="1" target="tFLva0FAG4GvPMsZimVx-2" edge="1">
          <mxGeometry width="50" height="50" relative="1" as="geometry">
            <mxPoint x="520" y="-250" as="sourcePoint" />
            <mxPoint x="570" y="-300" as="targetPoint" />
          </mxGeometry>
        </mxCell>
        <mxCell id="tFLva0FAG4GvPMsZimVx-59" value="" style="endArrow=none;html=1;rounded=0;exitX=0.317;exitY=0.85;exitDx=0;exitDy=0;exitPerimeter=0;" parent="1" source="tFLva0FAG4GvPMsZimVx-48" edge="1">
          <mxGeometry width="50" height="50" relative="1" as="geometry">
            <mxPoint x="520" y="-150" as="sourcePoint" />
            <mxPoint x="730" y="-140" as="targetPoint" />
          </mxGeometry>
        </mxCell>
        <mxCell id="HhsFKwcPgfAqlrPu1In0-20" value="" style="endArrow=none;dashed=1;html=1;dashPattern=1 3;strokeWidth=2;rounded=0;entryX=0.32;entryY=1;entryDx=0;entryDy=0;entryPerimeter=0;" edge="1" parent="1" target="tFLva0FAG4GvPMsZimVx-10">
          <mxGeometry width="50" height="50" relative="1" as="geometry">
            <mxPoint x="300" y="-290" as="sourcePoint" />
            <mxPoint x="470" y="-280" as="targetPoint" />
            <Array as="points" />
          </mxGeometry>
        </mxCell>
      </root>
    </mxGraphModel>
  </diagram>
</mxfile>
